<svg xmlns="http://www.w3.org/2000/svg" width="249" height="40" viewBox="0 0 249 40">
  <g fill="none" transform="translate(-1)">
    <path fill="#FFC425" d="M17.6237624,39.3564356 C17.5347873,39.381885 17.4404602,39.381885 17.3514851,39.3564356 L1.83168317,34.1584158 C1.47971018,34.026393 1.24415777,33.6926938 1.23762376,33.3168317 L1.23762376,6.83168317 C1.23700549,6.45352005 1.47514691,6.11615305 1.83168317,5.99009901 L17.3267327,0.816831683 L17.5990099,0.816831683 L17.8712871,0.816831683 L33.4158416,5.99009901 C33.7772521,6.10964557 34.0182833,6.45110637 34.009901,6.83168317 L34.009901,33.3168317 C34.0182833,33.6974085 33.7772521,34.0388693 33.4158416,34.1584158 L17.8960396,39.3069307 C17.8070646,39.33238 17.7127374,39.33238 17.6237624,39.3069307"/>
    <polygon fill="#BDB5AF" points="2.574 7.153 2.574 32.995 17.624 38.02 32.698 32.995 32.698 7.153 17.624 2.129"/>
    <path fill="#FFC425" d="M30.470297 17.6237624L30.470297 9.65346535C30.463763 9.27760325 30.2282106 8.94390401 29.8762376 8.81188119L17.8960396 4.95049505 17.6237624 4.95049505 17.3267327 4.95049505 5.37128713 8.81188119C5.01931414 8.94390401 4.78376173 9.27760325 4.77722772 9.65346535L4.77722772 17.6237624C4.77660945 18.0019255 5.01475087 18.3392925 5.37128713 18.4653465L10.1732673 20.0742574 5.37128713 21.6584158C5.01931414 21.7904387 4.78376173 22.1241379 4.77722772 22.5L4.77722772 30.470297C4.76884543 30.8508738 5.00987658 31.1923346 5.37128713 31.3118812L17.3267327 35.2970297C17.5021463 35.3636055 17.6958735 35.3636055 17.8712871 35.2970297L29.8514851 31.3118812C30.2128957 31.1923346 30.4539268 30.8508738 30.4455446 30.470297L30.4455446 22.5C30.4390105 22.1241379 30.2034581 21.7904387 29.8514851 21.6584158L25.049505 20.0742574 29.8514851 18.4653465C30.2177969 18.3478087 30.4673196 18.0084578 30.470297 17.6237624zM50.1485149 12.0792079L53.8613861 12.0792079C55.4843466 11.862929 57.124363 12.3289446 58.3910891 13.3663366 59.2583853 14.2577363 59.7234208 15.46504 59.6782178 16.7079208 59.7646517 18.666655 58.494583 20.4283632 56.6089109 20.9653465L60.3960396 28.0693069 57.0792079 28.0693069 53.490099 21.2871287 53.1930693 21.2871287 53.1930693 28.0693069 50.1485149 28.0693069 50.1485149 12.0792079zM53.1930693 18.3415842L54.6039604 18.3415842C55.990099 18.3415842 56.7079208 17.7722772 56.7079208 16.6831683 56.7079208 15.5940594 55.9653465 15.049505 54.529703 15.049505L53.1930693 15.049505 53.1930693 18.3415842z"/>
    <polygon fill="#FFC425" points="67.847 12.079 76.584 12.079 76.584 15.05 70.891 15.05 70.891 17.896 76.584 17.896 76.584 20.891 70.891 20.891 70.891 25.074 76.584 25.074 76.584 28.069 67.847 28.069"/>
    <path fill="#FFC425" d="M86.6336634 23.4653465C87.3514851 24.8267327 88.2178218 25.5445545 89.2821782 25.5445545 90.1954447 25.6313925 91.0100529 24.9708994 91.1138614 24.0594059 91.0491706 23.3465546 90.6790627 22.696609 90.0990099 22.2772277 86.7821782 19.480198 84.8267327 17.970297 84.8267327 15.6930693 84.8717516 14.5767305 85.3588748 13.5241218 86.1807207 12.7672808 87.0025665 12.0104397 88.0916599 11.6115042 89.2079208 11.6584158 91.0524441 11.7163769 92.7642584 12.6317856 93.8366337 14.1336634L91.5594059 16.1386139C91.0653274 15.2050777 90.1354561 14.5820639 89.0841584 14.480198 88.7542286 14.4385722 88.421679 14.5342391 88.1643031 14.7448193 87.9069273 14.9553996 87.7473033 15.2624201 87.7227723 15.5940594 87.8052718 16.1893997 88.1505001 16.7163271 88.6633663 17.029703 91.7821782 19.8019802 94.0594059 21.0148515 94.0594059 23.9356436 94.0727266 25.2160843 93.5405111 26.4416914 92.5957939 27.3061076 91.6510767 28.1705238 90.383136 28.5920597 89.1089109 28.4653465 86.9104167 28.4157595 84.9575124 27.0487264 84.1584158 25L86.6336634 23.4653465zM101.881188 12.0792079L104.950495 12.0792079 104.950495 22.8960396C104.950495 24.6287129 105.792079 25.519802 107.252475 25.519802 108.040213 25.547324 108.793963 25.1980251 109.282178 24.5792079 109.600077 23.9263497 109.728701 23.1974824 109.653465 22.4752475L109.653465 12.0792079 112.722772 12.0792079 112.722772 22.2772277C112.893945 23.8892511 112.412584 25.5027029 111.386139 26.7574257 110.364415 27.9284427 108.852094 28.5517022 107.30198 28.4405941 105.826793 28.5260018 104.385493 27.9765063 103.341584 26.9306931 102.139082 25.5811969 101.595354 23.7687694 101.856436 21.980198L101.881188 12.0792079z"/>
    <polygon fill="#FFC425" points="121.733 12.079 124.777 12.079 124.777 25.173 129.208 25.173 129.208 28.069 121.733 28.069"/>
    <polygon fill="#FFC425" points="137.351 12.079 146.188 12.079 146.188 15.05 143.267 15.05 143.267 28.069 140.198 28.069 140.198 15.05 137.351 15.05"/>
    <path fill="#BDB5AF" d="M163.836634,23.4653465 C164.579208,24.8267327 165.420792,25.5445545 166.485149,25.5445545 C167.407553,25.6458829 168.237962,24.981556 168.341584,24.0594059 C168.276893,23.3465546 167.906785,22.696609 167.326733,22.2772277 C163.985149,19.480198 162.029703,17.970297 162.029703,15.6930693 C162.074606,14.5722433 162.565165,13.5157376 163.392435,12.7581813 C164.219705,12.000625 165.315204,11.6047297 166.435644,11.6584158 C168.277154,11.7275792 169.984338,12.6405118 171.064356,14.1336634 L168.787129,16.1386139 C168.019802,15.0742574 167.252475,14.480198 166.311881,14.480198 C165.371287,14.480198 164.950495,14.950495 164.950495,15.5940594 C165.032995,16.1893997 165.378223,16.7163271 165.891089,17.029703 C168.861386,19.6534653 171.262376,20.9158416 171.262376,23.8366337 C171.275697,25.1170744 170.743481,26.3426815 169.798764,27.2070977 C168.854047,28.0715139 167.586106,28.4930498 166.311881,28.3663366 C164.038847,28.4050872 161.983108,27.0214167 161.163366,24.9009901 L163.836634,23.4653465 Z"/>
    <polygon fill="#BDB5AF" points="178.911 12.079 187.748 12.079 187.748 15.05 184.802 15.05 184.802 28.069 181.757 28.069 181.757 15.05 178.911 15.05"/>
    <path fill="#BDB5AF" d="M199.405941 12.0792079L202.475248 12.0792079 208.638614 28.0693069 205.445545 28.0693069 204.232673 24.7524752 197.69802 24.7524752 196.386139 28.0445545 193.217822 28.0445545 199.405941 12.0792079zM200.965347 16.3118812L198.836634 21.7821782 202.970297 21.7821782 200.965347 16.3118812zM229.405941 25.3960396C227.660013 27.4036031 225.110298 28.5287443 222.450495 28.4653465 220.181087 28.5790888 217.968898 27.7307348 216.357465 26.1287254 214.746032 24.5267159 213.884718 22.3195412 213.985149 20.049505 213.943179 17.7897808 214.830946 15.6119543 216.440744 14.0255544 218.050542 12.4391545 220.241132 11.5833677 222.5 11.6584158 225.179162 11.6625677 227.725133 12.8272142 229.480198 14.8514851L227.326733 16.9059406C226.100871 15.4345552 224.291254 14.5749872 222.376238 14.5544554 220.923596 14.5409895 219.526885 15.1138053 218.502 16.1433489 217.477115 17.1728925 216.910639 18.5721868 216.930693 20.0247525 216.866377 21.5052667 217.428105 22.9444938 218.478326 23.9900055 219.528548 25.0355171 220.970285 25.5907716 222.450495 25.519802 224.362019 25.5320639 226.178518 24.6873919 227.40099 23.2178218L229.405941 25.3960396z"/>
    <polygon fill="#BDB5AF" points="237.797 12.079 240.866 12.079 240.866 17.574 245.198 12.079 248.886 12.079 243.267 19.208 249.406 28.069 245.817 28.069 240.866 20.965 240.866 28.069 237.797 28.069"/>
    <path fill="#FFF" d="M30.9158416,17.6237624 L30.9158416,9.65346535 C30.9131379,9.0797236 30.5445769,8.57170715 30,8.39108911 L18.0445545,4.40594059 C17.7726391,4.30763273 17.4748856,4.30763273 17.2029703,4.40594059 L5.24752475,8.39108911 C4.70294782,8.57170715 4.33438687,9.0797236 4.33168317,9.65346535 L4.33168317,17.6237624 C4.33438687,18.1975041 4.70294782,18.7055206 5.24752475,18.8861386 L8.76237624,20.0742574 L5.24752475,21.2376238 C4.70758108,21.4245307 4.34180314,21.9287111 4.33168317,22.5 L4.33168317,30.470297 C4.32654961,31.0465732 4.69810645,31.5587191 5.24752475,31.7326733 L17.3267327,35.7178218 C17.598648,35.8161296 17.8964015,35.8161296 18.1683168,35.7178218 L30.1237624,31.7326733 C30.6731807,31.5587191 31.0447375,31.0465732 31.039604,30.470297 L31.039604,22.5 C31.029484,21.9287111 30.663706,21.4245307 30.1237624,21.2376238 L26.6089109,20.0742574 L30.1237624,18.8861386 C30.6196407,18.6652354 30.9326614,18.1663586 30.9158416,17.6237624 Z M17.4752475,5.24752475 L17.7722772,5.24752475 L29.7029703,9.23267327 C29.7601696,9.22133477 29.8190383,9.22133477 29.8762376,9.23267327 L17.5,13.0445545 L5.12376238,9.23267327 C5.18096166,9.22133477 5.23983041,9.22133477 5.2970297,9.23267327 L17.4752475,5.24752475 Z M5.51980198,18.0445545 C5.33648545,17.9883453 5.21434832,17.8153177 5.22277228,17.6237624 L5.22277228,10.1980198 L17.1782178,13.9108911 L17.1782178,21.8811881 L5.51980198,18.0445545 Z M5.22277228,30.4207921 L5.22277228,22.9950495 L17.1782178,26.7326733 L17.1782178,34.6782178 L5.51980198,30.8910891 C5.33648545,30.83488 5.21434832,30.6618524 5.22277228,30.470297 L5.22277228,30.4207921 Z M29.7277228,30.8415842 L18.0693069,34.7772277 L18.0693069,26.8316832 L30.0247525,23.0940594 L30.0247525,30.519802 C30.0083819,30.6998362 29.8788499,30.8492961 29.7029703,30.8910891 L29.7277228,30.8415842 Z M29.7277228,22.029703 C29.8016829,22.0563776 29.8633177,22.1092075 29.9009901,22.1782178 L17.5247525,25.990099 L5.34653465,22.2772277 C5.38420704,22.2082174 5.44584188,22.1553875 5.51980198,22.1287129 L10.1732673,20.5940594 L17.2029703,22.9455446 L17.6237624,22.9455446 C17.7630386,22.9690865 17.9052783,22.9690865 18.0445545,22.9455446 L25.0742574,20.6188119 L29.7277228,22.029703 Z M29.7277228,17.9950495 L18.0693069,21.9306931 L18.0693069,13.960396 L30.0247525,10.2475248 L30.0247525,17.6732673 C30.0083819,17.8533015 29.8788499,18.0027615 29.7029703,18.0445545 L29.7277228,17.9950495 Z"/>
    <path fill="#FFF" d="M17.6237624,38.9356436 L17.4752475,38.9356436 L1.78217822,33.6633663 C1.75988631,33.6163709 1.75988631,33.5618469 1.78217822,33.5148515 L1.78217822,6.63366337 C1.75556922,6.57897239 1.75556922,6.51508702 1.78217822,6.46039604 L17.6237624,1.18811881 L17.7722772,1.18811881 L33.4653465,6.41089109 C33.5367847,6.43966532 33.5850592,6.50724956 33.5891089,6.58415842 L33.5891089,33.5148515 C33.5901324,33.5881059 33.5375847,33.6511632 33.4653465,33.6633663 L17.6237624,38.9356436 Z M2.77227723,33.019802 L17.6237624,37.970297 L32.4752475,33.019802 C32.5474856,33.0075989 32.6000334,32.9445416 32.5990099,32.8712871 L32.5990099,7.27722772 C32.5949602,7.20031887 32.5466857,7.13273462 32.4752475,7.1039604 L17.6237624,2.15346535 L2.77227723,7.1039604 C2.74566823,7.15865137 2.74566823,7.22253674 2.77227723,7.27722772 L2.77227723,32.8712871 C2.70988816,32.8932257 2.66952248,32.9537742 2.67326733,33.019802 L2.77227723,33.019802 Z"/>
  </g>
</svg>
